<?xml version="1.0" encoding="UTF-8" standalone="no"?>
<svg xmlns="http://www.w3.org/2000/svg" xmlns:xlink="http://www.w3.org/1999/xlink" xmlns:serif="http://www.serif.com/" width="100%" height="100%" viewBox="0 0 512 512" version="1.1" xml:space="preserve" style="fill-rule:evenodd;clip-rule:evenodd;stroke-linejoin:round;stroke-miterlimit:2;">
    <path d="M490.667,64L277.333,64C265.63,64 256,73.63 256,85.333L256,155.093L204.8,66.347C197.205,53.101 183.056,44.904 167.787,44.904C152.517,44.904 138.369,53.101 130.773,66.347L2.773,288C-1.033,294.592 -1.033,302.741 2.773,309.333C6.594,315.952 13.691,320.03 21.333,320L112.853,320C108.711,333.842 106.627,348.218 106.667,362.667C106.667,444.589 174.078,512 256,512C337.922,512 405.333,444.589 405.333,362.667C405.373,348.218 403.289,333.842 399.147,320L490.667,320C502.37,320 512,310.37 512,298.667L512,85.333C512,73.63 502.37,64 490.667,64ZM58.24,277.333L167.68,87.68L240.853,213.333C197.706,218.135 158.728,241.522 134.187,277.333L58.24,277.333ZM256,469.333C197.484,469.333 149.333,421.182 149.333,362.667C149.333,304.151 197.484,256 256,256C314.516,256 362.667,304.151 362.667,362.667C362.667,421.182 314.516,469.333 256,469.333ZM469.333,277.333L378.453,277.333C359.084,249.679 330.978,229.314 298.667,219.52L298.667,106.667L469.333,106.667L469.333,277.333Z" style="fill:#a6802b;fill-rule:nonzero;"></path>
</svg>
