<?xml version="1.0" encoding="UTF-8" standalone="no"?>
<!DOCTYPE svg PUBLIC "-//W3C//DTD SVG 1.1//EN" "http://www.w3.org/Graphics/SVG/1.1/DTD/svg11.dtd">
<svg width="100%" height="100%" viewBox="0 0 659 194" version="1.1" xmlns="http://www.w3.org/2000/svg" xmlns:xlink="http://www.w3.org/1999/xlink" xml:space="preserve" xmlns:serif="http://www.serif.com/" style="fill-rule:evenodd;clip-rule:evenodd;stroke-miterlimit:10;">
    <g id="LogoMark">
        <g>
            <path d="M205.27,124.64C202.69,109.27 194.61,97.13 182.07,87.98C175.63,83.28 168.35,80.27 160.7,78.11C160.13,77.95 159.57,77.72 158.98,77.52C159.49,75.79 159.95,74.22 160.43,72.66C163,64.24 164,55.69 162.38,46.95C160.15,34.92 154.6,24.69 145.6,16.39C136.02,7.55 124.64,2.6 111.73,1.27C101.71,0.24 92.13,2.26 82.99,6.35C68.48,12.85 58.51,23.67 53.12,38.57C48.74,50.69 49.09,62.92 53.23,75.08C53.45,75.73 53.62,76.41 53.83,77.13C52.28,77.39 50.89,77.6 49.51,77.87C34.64,80.77 22.18,87.71 12.93,99.92C1.11,115.52 -1.85,132.85 3.71,151.46C7.43,163.91 14.71,174.15 25.41,181.7C36.71,189.68 49.35,193.18 63.12,191.63C76.45,190.13 88.08,184.55 98.17,175.76C99.86,174.29 101.45,172.7 103.23,171.04C103.81,171.68 104.37,172.31 104.94,172.92C108.89,177.11 113.32,180.72 118.32,183.55C130.79,190.61 144.06,193.64 158.35,191.17C170.9,189 181.75,183.46 190.35,174.05C203.17,160.02 208.43,143.47 205.27,124.63L205.27,124.64ZM148.81,183.81C128.22,183.81 110.61,171.06 103.42,153.04C96.19,170.99 78.63,183.67 58.09,183.67C31.11,183.67 9.23,161.8 9.23,134.81C9.23,107.82 31.1,85.95 58.09,85.95C61.46,85.95 64.74,86.31 67.91,86.96C61.62,78.74 57.87,68.46 57.87,57.31C57.87,30.33 79.74,8.45 106.73,8.45C133.72,8.45 155.59,30.32 155.59,57.31C155.59,68.11 152.08,78.09 146.15,86.17C147.03,86.12 147.92,86.09 148.81,86.09C175.79,86.09 197.67,107.96 197.67,134.95C197.67,161.94 175.8,183.81 148.81,183.81Z" style="fill:rgb(46,82,42);fill-rule:nonzero;stroke:rgb(28,53,25);stroke-width:2px;"/>
            <path d="M94.64,100.99C94.64,100.99 94.97,101.47 95.5,102.29C99,106.95 101.89,112.09 104.08,117.58C106.38,111.86 109.45,106.54 113.17,101.73C110.34,102.45 103.07,103.75 94.64,100.99Z" style="fill:rgb(46,82,42);fill-rule:nonzero;stroke:rgb(28,53,25);stroke-width:2px;"/>
            <g>
                <g>
                    <path d="M119.65,71.57C118.14,70.29 116.51,69.15 114.98,67.88C111.98,65.38 110.69,62.26 111.74,58.38C112.11,57.02 112.5,55.66 112.95,54.32C113.92,51.38 114.26,48.43 113.47,45.39C112.67,42.35 111.25,39.77 108.27,38.33C106.87,37.66 105.4,37.48 103.98,38.09C103.4,38.34 103,38.99 102.52,39.46C103.03,39.71 103.52,39.99 104.05,40.19C104.74,40.45 105.49,40.57 106.15,40.88C109.34,42.36 109.56,45.74 106.65,47.82C104.4,49.43 102.23,51.15 101.02,53.75C99.2,57.65 99.61,61.46 102.05,66.07C102.65,67.23 104.15,68.95 106.04,70.19C109.55,72.5 113.16,74.66 116.75,76.84C117.31,77.18 118,77.35 118.65,77.5C119.69,77.73 120.62,77.37 121.25,76.54C121.91,75.68 122.07,74.65 121.46,73.71C120.95,72.93 120.35,72.17 119.65,71.58L119.65,71.57Z" style="fill:none;fill-rule:nonzero;"/>
                    <path d="M93.9,69.84C90.16,65.04 87.87,59.67 87.91,53.48C87.96,46.61 89.96,40.61 95.75,36.38C101.17,32.42 109.17,32.69 113.47,38.66C114.08,39.51 114.64,40.4 115.3,41.38C115.3,40.96 115.3,40.63 115.27,40.31C114.98,37.44 113.82,34.93 111.98,32.75C107.33,27.27 99.86,25.86 93.62,29.39C89.26,31.86 86.32,35.62 84.65,40.3C80.77,51.23 84.08,63.95 92.73,71.68C94.44,73.21 96.29,74.52 98.59,75.2C98.38,74.95 98.16,74.71 97.95,74.46C96.6,72.92 95.16,71.45 93.9,69.84Z" style="fill:none;fill-rule:nonzero;"/>
                    <g>
                        <path d="M115.18,84.46C114.16,84.46 113.11,84.39 112.06,84.25L109.3,83.9C103.76,82.14 98.56,79.48 93.93,76C91.79,74.39 90.28,72.98 89.78,72.52C79.64,63.05 76.84,46.52 83.23,34.05C86.62,27.09 93.87,22.6 101.71,22.6C106.09,22.6 110.15,24.12 113.13,26.87C121.22,33.72 121.3,45.72 117.2,54.05C113.05,62.42 115.98,65.46 123.15,69.96C124.48,70.79 124.91,71.4 125.55,72.32C127.02,74.41 127.55,77.03 127.3,78.44C126.77,81.4 122.09,84.47 115.17,84.47L115.18,84.46ZM105.83,37.22C104.27,37.22 102.95,37.92 102.1,39.19L101.81,39.63L102.26,39.9C103.09,40.4 103.98,40.69 104.84,40.97C105.22,41.09 105.6,41.22 105.97,41.36C107.26,41.96 108.07,42.96 108.18,44.11C108.29,45.31 107.63,46.52 106.36,47.43C99.32,51.85 97.49,59.09 101.62,66.33C102.23,67.5 103.76,69.3 105.78,70.62C108.94,72.69 112.23,74.68 115.4,76.61L116.5,77.28C117.04,77.58 118.08,78.05 119.21,78.05C120.26,78.05 121.11,77.63 121.67,76.83C123.84,73.85 120.13,71.15 117.42,69.18C116.59,68.58 115.81,68.01 115.34,67.54C112.28,64.99 111.27,62.05 112.23,58.52C112.43,57.8 112.65,57.08 112.87,56.35C113.96,52.79 115.08,49.11 113.95,45.25C112.98,41.56 111.24,39.21 108.49,37.89C107.64,37.46 106.72,37.22 105.83,37.22ZM100.58,26.95C98.02,26.95 95.52,27.64 93.37,28.96C87.18,32.6 83.37,38.96 82.66,46.85C81.81,56.34 85.64,66.24 92.41,72.06C93.84,73.34 95.83,74.91 98.45,75.68L100.26,76.21L98.95,74.85C93.92,69.64 88.17,62.5 88.41,53.5C88.46,45.97 90.96,40.51 96.05,36.79C98.41,35.11 101.04,34.22 103.67,34.22C108.29,34.22 112.47,36.98 114.87,41.62L115.82,43.46L115.82,41.38C115.77,32.75 107.9,26.95 100.58,26.95Z" style="fill:rgb(221,173,38);fill-rule:nonzero;"/>
                        <path d="M101.71,23.09C105.97,23.09 109.9,24.56 112.82,27.25C120.7,33.92 120.76,45.66 116.75,53.81C112.27,62.85 116.08,66.1 122.88,70.37C124.12,71.15 124.51,71.69 125.14,72.59C126.54,74.57 127.04,77.03 126.81,78.33C126.33,81.03 121.74,83.95 115.17,83.95C114.17,83.95 113.14,83.88 112.11,83.75L111.58,83.68L109.43,83.41C103.89,81.65 98.77,79.02 94.21,75.59C92.09,74 90.6,72.6 90.08,72.12C80.12,62.82 77.37,46.55 83.67,34.25C86.92,27.57 94.17,23.09 101.7,23.09M101.92,77.21L99.3,74.5C94.34,69.36 88.67,62.33 88.9,53.49C88.95,46.14 91.38,40.81 96.32,37.2C98.6,35.58 101.13,34.72 103.65,34.72C108.07,34.72 112.09,37.38 114.4,41.84L116.31,45.53L116.29,41.38C116.24,32.45 108.12,26.45 100.56,26.45C97.9,26.45 95.32,27.17 93.1,28.52C86.76,32.25 82.86,38.74 82.14,46.8C81.28,56.45 85.17,66.51 92.05,72.42C93.53,73.74 95.57,75.36 98.29,76.15L101.91,77.21M105.74,41.8C106.87,42.34 107.57,43.19 107.66,44.14C107.76,45.15 107.18,46.19 106.07,46.99C98.78,51.58 96.89,59.08 101.14,66.53C101.79,67.78 103.38,69.65 105.47,71.03C108.62,73.1 111.9,75.08 115.06,77L116.25,77.72C116.81,78.03 117.94,78.55 119.18,78.55C120.42,78.55 121.39,78.06 122.03,77.14C124.5,73.75 120.39,70.76 117.68,68.78C116.87,68.19 116.11,67.63 115.66,67.19L115.63,67.16L115.59,67.13C112.73,64.75 111.78,61.98 112.68,58.66C112.88,57.94 113.1,57.22 113.32,56.5C114.43,52.87 115.57,49.12 114.41,45.15C113.39,41.29 111.57,38.84 108.7,37.46C107.77,36.98 106.77,36.73 105.8,36.73C104.07,36.73 102.6,37.51 101.65,38.92L101.07,39.79L101.97,40.33C102.85,40.86 103.77,41.16 104.66,41.45C105.02,41.57 105.38,41.68 105.73,41.81M101.69,22.1C94.21,22.1 86.42,26.33 82.76,33.82C76.28,46.46 78.96,63.12 89.39,72.86C89.86,73.3 91.4,74.75 93.6,76.4C99.52,80.85 105.27,83.15 109.21,84.4C110.13,84.52 111.05,84.64 111.97,84.75C113.07,84.89 114.14,84.96 115.16,84.96C122.19,84.96 127.2,81.8 127.78,78.52C128.07,76.87 127.43,74.14 125.94,72.02C125.26,71.06 124.8,70.41 123.39,69.53C116.43,65.16 113.57,62.43 117.62,54.26C122.04,45.29 121.44,33.26 113.44,26.49C110.2,23.5 105.99,22.09 101.68,22.09L101.69,22.1ZM98.57,75.2C96.27,74.53 94.42,73.21 92.71,71.68C80.58,61.26 78.71,38.14 93.6,29.38C95.78,28.05 98.17,27.45 100.55,27.45C107.98,27.45 115.24,33.35 115.28,41.38C112.69,36.38 108.29,33.72 103.64,33.71C100.99,33.71 98.25,34.58 95.73,36.37C89.94,40.6 87.93,46.6 87.89,53.47C87.66,62.19 92.8,69.2 98.57,75.18L98.57,75.2ZM119.18,77.55C118.34,77.55 117.44,77.24 116.73,76.85C113.14,74.67 109.53,72.51 106.02,70.2C104.12,68.95 102.63,67.24 102.03,66.08C97.83,58.71 100.1,51.93 106.63,47.83C109.54,45.75 109.31,42.36 106.13,40.89C104.92,40.43 103.63,40.16 102.5,39.48C103.31,38.27 104.53,37.73 105.82,37.73C106.64,37.73 107.48,37.95 108.26,38.35C111.24,39.79 112.66,42.36 113.46,45.41C114.78,49.89 112.93,54.14 111.74,58.4C110.68,62.29 111.98,65.41 114.98,67.9C117.01,69.93 123.74,73.13 121.25,76.55C120.74,77.28 120,77.55 119.2,77.55L119.18,77.55Z" style="fill:rgb(173,126,7);fill-rule:nonzero;"/>
                    </g>
                </g>
                <g>
                    <path d="M112.45,18.75C112.89,17.23 111.71,16.08 110.52,16.27C109.76,16.39 109.16,17.15 109.25,18.02C109.32,18.61 109.11,18.99 108.81,19.4C106.62,22.44 104.44,25.5 102.25,28.55C101.54,29.53 100.82,30.5 100.11,31.48C100.04,31.58 99.97,31.68 99.91,31.79C99.71,32.17 99.79,32.62 100.09,32.88C100.42,33.17 100.85,33.18 101.13,32.83C101.64,32.19 102.11,31.52 102.58,30.86C105.16,27.27 107.75,23.68 110.33,20.09C110.5,19.85 110.65,19.74 111.01,19.78C111.66,19.85 112.25,19.41 112.44,18.75L112.45,18.75Z" style="fill:rgb(173,126,7);fill-rule:nonzero;"/>
                    <g>
                        <path d="M99.18,17.15C97.79,16.18 96.23,17.01 96.03,18.31C95.91,19.13 96.47,20.02 97.39,20.21C98.01,20.34 98.33,20.69 98.65,21.13C101.01,24.42 103.39,27.71 105.76,30.99C106.52,32.05 107.27,33.12 108.02,34.19C108.1,34.3 108.17,34.4 108.27,34.5C108.59,34.83 109.07,34.91 109.43,34.68C109.83,34.43 109.99,33.99 109.72,33.58C109.24,32.84 108.72,32.13 108.2,31.41C105.42,27.53 102.63,23.65 99.84,19.77C99.66,19.52 99.59,19.32 99.75,18.96C100.03,18.31 99.78,17.55 99.18,17.14L99.18,17.15Z" style="fill:rgb(173,126,7);fill-rule:nonzero;"/>
                        <path d="M122.71,60.88C124.31,61.44 125.59,60.22 125.43,58.92C125.33,58.1 124.55,57.39 123.61,57.45C122.98,57.49 122.58,57.24 122.15,56.9C118.99,54.36 115.82,51.84 112.66,49.31C111.64,48.49 110.64,47.66 109.62,46.83C109.52,46.75 109.41,46.67 109.3,46.6C108.9,46.36 108.42,46.42 108.13,46.73C107.81,47.08 107.78,47.54 108.14,47.86C108.8,48.44 109.5,48.99 110.18,49.54C113.9,52.53 117.63,55.52 121.36,58.51C121.6,58.71 121.72,58.88 121.66,59.27C121.56,59.97 122.01,60.63 122.7,60.87L122.71,60.88Z" style="fill:rgb(173,126,7);fill-rule:nonzero;"/>
                        <path d="M125.05,52.26C126.27,51.26 125.95,49.64 124.87,49.12C124.18,48.79 123.25,49.07 122.83,49.85C122.55,50.38 122.16,50.57 121.68,50.74C118.15,52.01 114.62,53.29 111.09,54.57C109.95,54.98 108.81,55.37 107.67,55.77C107.56,55.81 107.44,55.85 107.33,55.91C106.95,56.11 106.76,56.52 106.86,56.91C106.97,57.34 107.32,57.59 107.75,57.46C108.53,57.22 109.3,56.93 110.07,56.66C114.23,55.17 118.39,53.67 122.56,52.17C122.83,52.07 123.02,52.07 123.3,52.3C123.79,52.73 124.53,52.69 125.06,52.26L125.05,52.26Z" style="fill:rgb(173,126,7);fill-rule:nonzero;"/>
                        <path d="M127.43,66.13C128.75,65.27 128.61,63.62 127.59,62.99C126.94,62.59 125.98,62.77 125.49,63.49C125.15,63.98 124.75,64.13 124.25,64.25C120.6,65.13 116.96,66.03 113.31,66.91C112.13,67.2 110.95,67.46 109.78,67.73C109.66,67.76 109.54,67.79 109.43,67.83C109.03,67.99 108.8,68.38 108.85,68.77C108.91,69.21 109.23,69.5 109.67,69.41C110.47,69.26 111.26,69.05 112.06,68.86C116.36,67.82 120.66,66.79 124.96,65.74C125.24,65.67 125.43,65.69 125.68,65.95C126.12,66.43 126.86,66.47 127.43,66.1L127.43,66.13Z" style="fill:rgb(173,126,7);fill-rule:nonzero;"/>
                    </g>
                </g>
            </g>
            <g>
                <g>
                    <path d="M55.5,169.48C50.09,169.48 44.68,167.91 39.43,164.83C34.1,161.69 30.26,157.21 28.02,151.51C27.5,150.19 27.17,148.63 27.06,146.99C26.96,145.56 27.32,144.37 28.1,143.53C28.86,142.71 30,142.28 31.4,142.27C33.03,142.27 34.63,142.59 35.94,143.18C37.94,144.07 39.88,145.22 41.76,146.33L42.93,147.02C45.6,148.58 49.19,150.47 53.28,151.24C54.5,151.47 55.74,151.59 56.97,151.59C59.94,151.59 62.86,150.93 65.87,149.58C63.91,151.27 61.61,152.39 59.01,152.92C57.85,153.16 56.65,153.28 55.45,153.28C53.37,153.28 51.24,152.93 48.95,152.22C48.85,152.19 48.76,152.15 48.66,152.12C48.39,152.02 48.08,151.9 47.74,151.9C47.64,151.9 46.52,151.95 46.23,152.61C46.02,153.09 46.2,154.03 46.68,154.32C47.44,154.78 48.35,155.29 49.34,155.55C51.57,156.12 53.77,156.41 55.88,156.41C59.5,156.41 62.97,155.55 66.22,153.86C64.37,156.54 61.66,158.01 57.93,158.35C57.3,158.41 56.67,158.44 56.04,158.44C53.37,158.44 50.74,157.93 48.02,156.88C47.52,156.69 47,156.58 46.49,156.47C46.26,156.42 46.02,156.37 45.78,156.31L45.23,156.18L45.16,156.74C44.94,158.55 46.18,159.13 46.84,159.45C49.83,160.86 52.76,161.57 55.56,161.57C57.63,161.57 59.7,161.18 61.71,160.41C62.12,160.26 62.52,160.08 62.92,159.91C63.09,159.84 63.26,159.76 63.44,159.69C60.59,162.15 57.16,163.39 53.25,163.39C52.44,163.39 51.59,163.34 50.73,163.23C49.59,163.09 48.48,162.72 47.31,162.34C46.74,162.15 46.17,161.96 45.59,161.8C45.48,161.77 45.37,161.73 45.26,161.68C44.99,161.57 44.68,161.45 44.35,161.45C44.02,161.45 43.58,161.57 43.26,162.13C42.75,163.01 43.03,164.02 43.96,164.71C44.75,165.29 45.53,165.71 46.29,165.96C48.79,166.77 51.24,167.18 53.59,167.18C57.86,167.18 61.91,165.83 65.61,163.15C70.7,159.48 74.18,155.32 76.25,150.44C77.66,147.12 78.22,143.43 78.02,138.84L77.98,137.86L76.8,138.79C76.58,138.96 76.4,139.1 76.23,139.25C70.77,143.78 65.18,146.43 59.13,147.35C57.9,147.54 56.69,147.63 55.53,147.63C52.6,147.63 49.82,147.02 47.28,145.81C44.58,144.52 42.68,142.53 41.47,139.71C41.24,139.17 41.26,138.5 41.51,137.9C41.74,137.37 42.14,136.97 42.6,136.8C42.76,136.8 43.12,137 43.33,137.12C43.35,137.18 43.38,137.28 43.39,137.34L43.44,137.52C44.61,141.56 47.49,144.03 51.98,144.87C53.32,145.12 54.73,145.25 56.16,145.25C65.42,145.25 75.06,140.04 79.62,132.57C82.48,127.88 82.72,122.74 80.35,116.87C80.03,116.08 79.44,115.27 78.6,114.44C78.25,114.1 77.75,114.01 77.3,113.94C77.14,113.91 76.97,113.89 76.82,113.84L76.21,113.67L76.19,114.3C76.19,114.44 76.16,114.59 76.14,114.75C76.08,115.15 76.02,115.61 76.2,116.03L76.55,116.85C77.36,118.73 78.12,120.51 78.25,122.51C78.35,124.01 78.22,125.36 77.86,126.58C77.8,123.26 77.19,120.61 75.96,118.28C74.43,115.39 72.2,113.6 69.33,112.95C68.82,112.83 68.33,112.78 67.85,112.78C66.29,112.78 64.89,113.39 63.7,114.59C61.83,116.47 60.82,118.96 60.6,122.2C60.39,125.26 60.93,128.4 62.25,131.81C61.98,131.61 61.72,131.4 61.47,131.18C60.08,129.98 59.31,129.33 58.42,129.33C57.53,129.33 56.79,129.94 55.41,131.06C55.14,131.28 54.89,131.48 54.64,131.66L54.64,131.64C55.04,130.78 55.45,129.88 55.89,129.03C56.35,128.15 56.29,127.32 55.73,126.55C55.56,126.32 55.41,126.09 55.25,125.85C55.06,125.56 54.87,125.27 54.66,124.99C52.36,121.99 51.51,118.33 52.26,114.7C53.07,110.81 55.6,107.43 59.22,105.43C61.94,103.92 65.07,103.12 68.28,103.12C73.2,103.12 78.01,104.94 81.85,108.25C87.15,112.83 90.25,119 91.07,126.6C92.6,140.83 84.79,157.01 72.88,164.23C67.11,167.73 61.26,169.5 55.49,169.5L55.5,169.48ZM55.67,116.92C55.17,116.92 54.68,117.13 54.3,117.52C53.83,117.99 53.57,118.68 53.58,119.39C53.6,120.97 54.65,122.26 55.91,122.26C57.16,122.24 58.06,121.13 58.04,119.69C58.02,118.23 56.92,116.93 55.68,116.92L55.67,116.92Z" style="fill:rgb(221,173,38);fill-rule:nonzero;"/>
                    <path d="M68.3,103.59C73.1,103.59 77.8,105.37 81.54,108.6C86.74,113.09 89.79,119.15 90.59,126.62C92.1,140.68 84.39,156.65 72.64,163.77C66.95,167.22 61.18,168.97 55.51,168.97C50.19,168.97 44.86,167.43 39.69,164.39C34.46,161.31 30.69,156.91 28.49,151.31C27.99,150.03 27.67,148.52 27.56,146.94C27.47,145.65 27.79,144.59 28.46,143.86C29.13,143.14 30.14,142.76 31.44,142.76C32.96,142.76 34.48,143.07 35.73,143.62C37.7,144.5 39.63,145.63 41.49,146.73C41.88,146.96 42.28,147.2 42.67,147.43C45.38,149.01 49.02,150.93 53.18,151.71C54.43,151.95 55.71,152.07 56.96,152.07C58.61,152.07 60.25,151.87 61.89,151.47C60.95,151.88 59.95,152.19 58.9,152.41C57.77,152.64 56.61,152.76 55.43,152.76C53.4,152.76 51.32,152.42 49.08,151.73C48.99,151.7 48.91,151.67 48.82,151.64C48.52,151.53 48.15,151.39 47.72,151.39L47.65,151.39C47.5,151.39 46.17,151.47 45.76,152.39C45.45,153.08 45.69,154.3 46.41,154.73C47.2,155.21 48.16,155.75 49.21,156.02C51.48,156.6 53.72,156.9 55.87,156.9C58.79,156.9 61.61,156.36 64.31,155.28C62.67,156.76 60.55,157.61 57.88,157.85C57.27,157.91 56.65,157.94 56.03,157.94C53.42,157.94 50.85,157.44 48.19,156.41C47.66,156.2 47.11,156.09 46.58,155.98C46.35,155.93 46.12,155.88 45.89,155.83L44.8,155.56L44.66,156.68C44.39,158.85 45.96,159.58 46.63,159.9C49.68,161.34 52.69,162.07 55.57,162.07C56.91,162.07 58.24,161.91 59.56,161.6C57.64,162.46 55.54,162.9 53.27,162.9C52.48,162.9 51.65,162.85 50.81,162.74C49.72,162.6 48.63,162.25 47.48,161.87C46.92,161.68 46.33,161.49 45.75,161.33C45.66,161.3 45.56,161.26 45.46,161.23C45.16,161.11 44.79,160.97 44.37,160.97C43.73,160.97 43.19,161.3 42.84,161.9C42.2,162.99 42.54,164.3 43.68,165.14C44.51,165.75 45.34,166.2 46.15,166.46C48.7,167.28 51.2,167.7 53.6,167.7C57.98,167.7 62.12,166.31 65.92,163.58C71.09,159.85 74.62,155.63 76.73,150.66C78.17,147.27 78.75,143.51 78.54,138.84L78.45,136.88L76.92,138.1L76.53,138.41C76.3,138.59 76.11,138.74 75.93,138.89C70.55,143.36 65.03,145.97 59.08,146.88C57.87,147.06 56.69,147.16 55.55,147.16C52.65,147.16 50.02,146.58 47.51,145.38C44.92,144.15 43.1,142.23 41.94,139.53C41.76,139.12 41.78,138.59 41.98,138.12C42.13,137.77 42.37,137.5 42.65,137.35C42.72,137.38 42.82,137.43 42.92,137.48C42.94,137.55 42.95,137.61 42.97,137.68C44.2,141.92 47.2,144.51 51.9,145.38C53.27,145.64 54.71,145.77 56.17,145.77C65.59,145.77 75.41,140.46 80.05,132.85C83,128.01 83.25,122.73 80.82,116.71C80.47,115.85 79.86,115 78.96,114.11C78.5,113.66 77.88,113.55 77.39,113.47C77.24,113.45 77.1,113.42 76.96,113.39L75.74,113.05L75.69,114.31C75.69,114.44 75.66,114.57 75.65,114.71C75.59,115.15 75.51,115.71 75.74,116.25C75.86,116.52 75.97,116.8 76.09,117.07C76.45,117.91 76.8,118.72 77.09,119.54C76.89,119.03 76.66,118.54 76.41,118.07C74.81,115.05 72.47,113.17 69.45,112.48C68.91,112.36 68.37,112.29 67.86,112.29C66.16,112.29 64.64,112.95 63.35,114.25C61.4,116.22 60.33,118.81 60.1,122.18C59.92,124.79 60.27,127.46 61.17,130.29C60.06,129.35 59.33,128.84 58.41,128.84C57.61,128.84 56.91,129.25 55.98,129.97C56.09,129.74 56.21,129.5 56.33,129.28C57.02,127.95 56.6,126.91 56.13,126.28C55.97,126.06 55.82,125.83 55.67,125.61C55.48,125.32 55.28,125.02 55.05,124.72C52.84,121.83 52.02,118.32 52.75,114.83C53.53,111.08 55.97,107.83 59.46,105.89C62.1,104.42 65.15,103.65 68.27,103.65M55.89,122.82L55.92,122.82C57.42,122.79 58.54,121.47 58.51,119.74C58.49,117.98 57.18,116.49 55.64,116.48C55,116.48 54.39,116.75 53.92,117.23C53.36,117.8 53.04,118.61 53.06,119.46C53.09,121.35 54.33,122.82 55.89,122.82M68.27,102.65C65.03,102.65 61.83,103.43 58.97,105.02C51.66,109.08 48.96,118.42 54.25,125.33C54.63,125.83 54.94,126.38 55.31,126.88C55.78,127.51 55.78,128.14 55.43,128.83C54.95,129.76 54.52,130.71 54.08,131.66C53.9,132.05 53.77,132.46 53.61,132.87C54.44,132.5 55.07,131.99 55.7,131.48C57.03,130.41 57.72,129.86 58.4,129.86C59.09,129.86 59.77,130.43 61.12,131.59C61.67,132.06 62.26,132.48 62.82,132.93C62.9,132.85 62.99,132.77 63.07,132.7C62.94,132.36 62.82,132.01 62.69,131.67C61.52,128.65 60.85,125.53 61.07,122.27C61.26,119.52 62.03,116.99 64.03,114.98C65.12,113.88 66.4,113.32 67.83,113.32C68.27,113.32 68.73,113.37 69.2,113.48C72.13,114.15 74.13,115.99 75.49,118.56C76.94,121.3 77.36,124.3 77.33,127.37L77.33,128.43C77.43,128.43 77.54,128.43 77.64,128.44C78.58,126.59 78.84,124.61 78.71,122.53C78.56,120.14 77.53,118.04 76.62,115.89C76.44,115.47 76.63,114.89 76.65,114.38C77.18,114.53 77.87,114.52 78.21,114.85C78.87,115.5 79.51,116.27 79.85,117.11C81.94,122.28 82.16,127.42 79.15,132.36C74.59,139.83 65.05,144.8 56.12,144.8C54.74,144.8 53.36,144.68 52.03,144.43C47.97,143.67 45.07,141.54 43.88,137.43C43.81,137.2 43.77,136.86 43.6,136.77C43.29,136.6 42.87,136.36 42.55,136.36C42.49,136.36 42.44,136.36 42.39,136.39C41.06,136.87 40.41,138.65 40.97,139.96C42.2,142.83 44.19,144.97 47.03,146.32C49.77,147.62 52.6,148.19 55.5,148.19C56.71,148.19 57.94,148.09 59.18,147.9C65.78,146.9 71.44,143.91 76.52,139.69C76.79,139.46 77.07,139.25 77.49,138.92C77.67,143 77.27,146.75 75.76,150.31C73.54,155.53 69.82,159.54 65.29,162.81C61.59,165.48 57.66,166.74 53.56,166.74C51.23,166.74 48.85,166.33 46.42,165.55C45.64,165.3 44.89,164.87 44.23,164.38C43.62,163.93 43.23,163.2 43.66,162.45C43.85,162.13 44.08,162.02 44.32,162.02C44.68,162.02 45.07,162.25 45.43,162.35C47.17,162.84 48.87,163.58 50.64,163.8C51.52,163.91 52.38,163.96 53.22,163.96C57.39,163.96 61.19,162.6 64.41,159.52C64.67,159.27 64.85,158.93 65.06,158.63C63.76,159 62.65,159.57 61.49,160.01C59.48,160.78 57.49,161.13 55.52,161.13C52.64,161.13 49.8,160.37 47.01,159.05C46.23,158.68 45.44,158.22 45.61,156.86C46.37,157.05 47.11,157.15 47.79,157.41C50.45,158.44 53.18,159.01 55.99,159.01C56.63,159.01 57.28,158.98 57.93,158.92C61.56,158.58 64.58,157.19 66.66,154.09C66.87,153.78 66.99,153.41 67.26,152.86C66.83,153.04 66.66,153.09 66.52,153.17C63.07,155.09 59.5,155.97 55.83,155.97C53.72,155.97 51.59,155.68 49.42,155.13C48.53,154.9 47.68,154.44 46.9,153.96C46.66,153.81 46.52,153.16 46.64,152.88C46.75,152.63 47.29,152.49 47.65,152.47L47.69,152.47C48.04,152.47 48.4,152.66 48.75,152.77C50.94,153.45 53.16,153.85 55.4,153.85C56.61,153.85 57.84,153.73 59.07,153.48C62.36,152.8 65.15,151.24 67.44,148.8C67.39,148.69 67.34,148.59 67.29,148.48C66.97,148.61 66.64,148.72 66.33,148.87C63.3,150.33 60.18,151.16 56.93,151.16C55.75,151.16 54.55,151.05 53.34,150.82C49.65,150.12 46.35,148.53 43.15,146.66C40.84,145.31 38.55,143.88 36.11,142.8C34.68,142.16 32.99,141.85 31.41,141.85L31.36,141.85C28.18,141.86 26.31,143.94 26.53,147.1C26.64,148.67 26.95,150.3 27.53,151.77C29.83,157.62 33.81,162.2 39.16,165.34C44.59,168.53 50.05,170.06 55.48,170.06C61.43,170.06 67.35,168.22 73.13,164.71C85.37,157.29 93.09,140.83 91.55,126.6C90.76,119.22 87.85,112.84 82.16,107.93C78.14,104.46 73.16,102.67 68.26,102.67L68.27,102.65ZM55.89,121.82C54.9,121.82 54.08,120.75 54.06,119.44C54.04,118.37 54.77,117.48 55.65,117.48C56.62,117.48 57.5,118.55 57.51,119.75C57.52,120.91 56.83,121.8 55.9,121.82L55.88,121.82L55.89,121.82Z" style="fill:rgb(173,126,7);fill-rule:nonzero;"/>
                </g>
                <g>
                    <path d="M58.58,141.79C57.45,141.79 56.41,141.27 55.71,140.4C55.03,139.54 54.76,138.44 55,137.37C55.34,135.78 56.1,134.42 57.26,133.32C57.63,132.97 57.97,132.79 58.28,132.79C58.59,132.79 58.9,132.95 59.25,133.28C60.46,134.41 61.63,135.71 61.98,137.5C62.21,138.64 61.95,139.77 61.28,140.58C60.64,141.36 59.7,141.79 58.62,141.79L58.58,141.79Z" style="fill:rgb(221,173,38);fill-rule:nonzero;"/>
                    <path d="M58.27,133.29C58.48,133.29 58.72,133.48 58.89,133.64C60.04,134.71 61.14,135.94 61.47,137.59C61.67,138.6 61.46,139.55 60.88,140.26C60.34,140.92 59.53,141.29 58.58,141.29C57.61,141.29 56.7,140.84 56.1,140.09C55.51,139.35 55.29,138.4 55.48,137.48C55.8,135.99 56.51,134.72 57.59,133.68C57.85,133.43 58.09,133.29 58.27,133.29M58.27,132.29C57.82,132.29 57.37,132.51 56.9,132.96C55.66,134.14 54.86,135.6 54.5,137.27C53.94,139.85 55.92,142.27 58.57,142.29L58.61,142.29C61.2,142.29 62.98,140.06 62.46,137.41C62.09,135.54 60.91,134.17 59.58,132.92C59.14,132.5 58.7,132.3 58.27,132.3L58.27,132.29Z" style="fill:rgb(173,126,7);fill-rule:nonzero;"/>
                </g>
                <g>
                    <path d="M34.11,136.04C31.83,133.55 30.22,130.58 29.2,126.99C29.14,126.79 29.16,126.72 29.16,126.71C29.64,125.79 30.15,124.85 30.69,123.85L30.89,123.48C31.8,124.39 32.37,125.06 32.26,126.34C31.97,129.48 32.6,132.74 34.12,136.03L34.11,136.04Z" style="fill:rgb(221,173,38);fill-rule:nonzero;"/>
                    <path d="M31,124.33C31.58,124.98 31.83,125.48 31.76,126.31C31.56,128.53 31.8,130.8 32.47,133.1C31.27,131.26 30.35,129.19 29.69,126.85L29.69,126.81C30.12,125.99 30.55,125.18 31.02,124.33M30.79,122.66C30.05,124.03 29.37,125.26 28.73,126.51C28.65,126.67 28.69,126.93 28.75,127.12C29.86,131.01 31.74,134.45 34.66,137.28C34.8,137.41 35.02,137.46 35.48,137.67C35.11,136.9 34.87,136.4 34.64,135.91C33.23,132.89 32.48,129.7 32.78,126.39C32.94,124.64 31.95,123.82 30.8,122.65L30.79,122.66Z" style="fill:rgb(173,126,7);fill-rule:nonzero;"/>
                </g>
                <g>
                    <path d="M37.68,136.86C35.36,134.29 34.21,131.13 34.18,127.25C35.63,127.69 36.96,129.29 36.87,130.66C36.73,132.69 37.01,134.77 37.68,136.86Z" style="fill:rgb(221,173,38);fill-rule:nonzero;"/>
                    <path d="M34.7,128.03C35.66,128.6 36.43,129.7 36.37,130.63C36.28,131.92 36.36,133.24 36.59,134.56C35.45,132.67 34.82,130.51 34.7,128.03M33.68,126.65C33.58,131.14 34.91,135.02 38.2,138.11C38.31,138.08 38.43,138.04 38.54,138.01C38.43,137.63 38.33,137.24 38.2,136.86C37.53,134.86 37.21,132.81 37.36,130.7C37.48,128.91 35.63,126.82 33.68,126.65Z" style="fill:rgb(173,126,7);fill-rule:nonzero;"/>
                </g>
                <g>
                    <path d="M31.59,137.37C29.71,136.23 28.18,134.73 27.03,132.9C26.7,132.37 26.63,131.67 26.85,130.98C27.03,130.41 27.37,129.93 27.81,129.6C28.59,132.46 29.85,135.06 31.59,137.38L31.59,137.37Z" style="fill:rgb(221,173,38);fill-rule:nonzero;"/>
                    <path d="M27.58,130.58C28.09,132.22 28.76,133.78 29.6,135.24C28.78,134.47 28.06,133.6 27.46,132.63C27.21,132.22 27.16,131.67 27.33,131.12C27.39,130.93 27.48,130.74 27.58,130.58M28.13,128.83C26.44,129.55 25.72,131.74 26.61,133.16C27.95,135.3 29.75,136.95 31.96,138.16C32.18,138.28 32.44,138.34 32.69,138.43C32.76,138.35 32.82,138.27 32.89,138.19C30.55,135.45 28.99,132.32 28.14,128.83L28.13,128.83Z" style="fill:rgb(173,126,7);fill-rule:nonzero;"/>
                </g>
                <g>
                    <path d="M25.51,139.94C25.2,139.39 25.06,138.65 25.12,137.84C25.2,136.84 25.58,135.88 26.16,135.19C26.17,135.21 26.18,135.23 26.19,135.25C26.46,135.73 26.74,136.23 27.06,136.7C27.39,137.18 27.76,137.61 28.12,138.03C28.15,138.06 28.17,138.09 28.2,138.12L25.51,139.95L25.51,139.94Z" style="fill:rgb(221,173,38);fill-rule:nonzero;"/>
                    <path d="M26.12,136.13C26.29,136.41 26.46,136.7 26.65,136.98C26.91,137.35 27.18,137.69 27.45,138.01L25.73,139.18C25.62,138.8 25.58,138.35 25.61,137.88C25.66,137.25 25.84,136.65 26.11,136.14M26.26,134.38C24.43,135.92 24.06,139.13 25.37,140.63C26.54,139.83 27.7,139.05 28.92,138.22C28.46,137.66 27.91,137.07 27.46,136.42C27.01,135.78 26.66,135.07 26.26,134.38Z" style="fill:rgb(173,126,7);fill-rule:nonzero;"/>
                </g>
                <g>
                    <path d="M39.27,134.94C39.09,133.96 39.13,132.96 39.41,131.9C39.48,131.86 39.58,131.83 39.62,131.83C40.39,132.1 40.96,132.68 41.27,133.55L39.27,134.94Z" style="fill:rgb(221,173,38);fill-rule:nonzero;"/>
                    <path d="M39.79,132.47C40.16,132.68 40.44,132.98 40.65,133.38L39.67,134.06C39.64,133.54 39.68,133.02 39.79,132.47M39.62,131.33C39.38,131.33 38.99,131.51 38.95,131.66C38.58,133.01 38.53,134.37 38.95,135.77C40,135.04 40.89,134.41 41.84,133.75C41.55,132.63 40.88,131.74 39.71,131.34C39.68,131.34 39.65,131.33 39.61,131.33L39.62,131.33Z" style="fill:rgb(173,126,7);fill-rule:nonzero;"/>
                </g>
            </g>
            <g>
                <g>
                    <path d="M148.95,168.89C147.59,168.89 146.2,168.82 144.84,168.68C138.69,168.05 133.07,166.02 128.13,162.66C122.56,158.87 118.41,153.86 115.8,147.76C113.55,142.51 112.72,136.93 113.35,131.15C113.91,126.05 115.53,121.29 118.17,117.01C120.8,112.75 124.25,109.12 128.43,106.22C132.6,103.33 137.41,101.37 142.72,100.4C144.91,100 147.11,99.8 149.27,99.8C153.79,99.8 158.28,100.69 162.62,102.45C167.53,104.44 171.9,107.43 175.6,111.35C178.03,113.91 179.89,116.48 181.29,119.2C183.62,123.72 184.86,128.06 185.06,132.49L185.16,134.5C185.08,140.13 183.82,145.35 181.41,149.97C178.5,155.55 174.28,160.08 168.87,163.42C164.79,165.94 160.22,167.61 155.29,168.39C153.19,168.72 151.06,168.89 148.96,168.89L148.95,168.89ZM149.06,100.96C147.7,100.96 146.29,101.05 144.75,101.25C140.64,101.77 136.75,103.03 133.19,105C129.71,106.92 126.65,109.54 123.81,113C120.44,117.11 118.2,121.25 116.94,125.65C115.34,131.24 115.28,136.8 116.74,142.15C118.33,147.98 121.49,153.21 126.14,157.69C130.04,161.46 134.51,164.09 139.44,165.52C141.85,166.22 144.2,166.57 146.42,166.57C147.34,166.57 148.26,166.51 149.15,166.39C153.43,165.82 157.05,163.8 159.9,160.4C163.31,156.33 164.57,151.89 163.65,147.19C162.73,142.54 160.17,138.88 156.03,136.32C153.65,134.85 151.01,134.32 148.52,133.98C143.95,133.35 140.46,131.5 137.86,128.33C134.35,124.05 133.32,119.48 134.79,114.75C136.62,108.86 140.74,105.11 147.03,103.62C148.76,103.21 150.47,103 152.11,103C153.04,103 153.97,103.07 154.88,103.2C155.71,103.32 156.54,103.48 157.38,103.64L158.52,103.85L163.33,104.72L158.8,102.9C156.59,102.01 154.48,101.45 152.34,101.17C151.29,101.04 150.19,100.97 149.07,100.97L149.06,100.96ZM149.71,110.99C145.81,111 142.77,114 142.77,117.82C142.77,121.7 145.81,124.74 149.67,124.74L149.94,124.74C151.62,124.74 153.23,124.04 154.48,122.76C155.81,121.39 156.61,119.49 156.57,117.78C156.47,113.97 153.46,110.98 149.72,110.98L149.7,110.98L149.71,110.99Z" style="fill:rgb(221,173,38);fill-rule:nonzero;"/>
                    <path d="M149.26,99.31L149.26,100.31C153.71,100.31 158.14,101.19 162.42,102.92C167.26,104.88 171.57,107.84 175.23,111.7C177.62,114.23 179.46,116.76 180.84,119.44C183.14,123.89 184.36,128.17 184.56,132.52C184.58,132.99 184.61,133.45 184.63,133.91L184.66,134.5C184.58,140.07 183.33,145.2 180.96,149.75C178.09,155.25 173.94,159.71 168.6,163C164.58,165.48 160.07,167.13 155.2,167.9C153.12,168.23 151.02,168.39 148.95,168.39C147.6,168.39 146.24,168.32 144.89,168.18C138.83,167.55 133.28,165.56 128.41,162.24C122.92,158.51 118.83,153.57 116.25,147.56C114.03,142.39 113.22,136.89 113.84,131.2C114.39,126.17 115.98,121.48 118.59,117.27C121.19,113.07 124.59,109.49 128.71,106.63C132.82,103.78 137.56,101.85 142.8,100.89C144.96,100.5 147.13,100.3 149.26,100.3L149.26,99.3M146.43,167.07C147.37,167.07 148.31,167.01 149.23,166.89C153.64,166.3 157.36,164.23 160.29,160.73C163.8,156.54 165.1,151.95 164.15,147.1C163.21,142.31 160.57,138.54 156.31,135.9C153.85,134.38 151.15,133.84 148.6,133.49C144.16,132.87 140.78,131.08 138.26,128.02C134.86,123.88 133.86,119.47 135.28,114.9C137.05,109.19 141.05,105.56 147.16,104.11C148.85,103.71 150.52,103.5 152.13,103.5C153.04,103.5 153.95,103.57 154.83,103.69C155.64,103.81 156.44,103.96 157.29,104.12C157.68,104.19 158.07,104.27 158.46,104.34L168.05,106.06L159.01,102.43C156.76,101.53 154.61,100.95 152.42,100.67C151.35,100.53 150.23,100.46 149.09,100.46C147.71,100.46 146.28,100.56 144.72,100.75C140.54,101.28 136.59,102.56 132.98,104.56C129.45,106.51 126.33,109.17 123.46,112.68C120.05,116.84 117.77,121.04 116.5,125.51C114.88,131.19 114.81,136.84 116.3,142.27C117.92,148.18 121.12,153.49 125.83,158.04C129.79,161.87 134.33,164.54 139.34,165.99C141.8,166.7 144.19,167.06 146.46,167.06M149.99,125.24C151.81,125.24 153.55,124.48 154.89,123.11C156.31,121.65 157.16,119.61 157.12,117.77C157.02,113.68 153.79,110.48 149.75,110.48C145.57,110.49 142.31,113.71 142.31,117.81C142.31,121.97 145.57,125.23 149.67,125.23L149.99,125.23M149.29,99.28C147.1,99.28 144.88,99.48 142.65,99.89C137.42,100.84 132.56,102.75 128.17,105.79C123.95,108.72 120.47,112.36 117.77,116.73C115.05,121.13 113.44,125.93 112.88,131.08C112.24,136.92 113.05,142.56 115.36,147.94C118.04,154.19 122.23,159.22 127.87,163.06C133,166.55 138.66,168.53 144.81,169.17C146.2,169.31 147.59,169.38 148.97,169.38C151.11,169.38 153.24,169.21 155.37,168.87C160.29,168.09 164.89,166.45 169.13,163.83C174.62,160.44 178.88,155.9 181.85,150.19C184.41,145.28 185.58,140.01 185.66,134.46C185.63,133.81 185.59,133.13 185.56,132.45C185.34,127.65 183.92,123.19 181.73,118.96C180.21,116.02 178.23,113.4 175.96,111C172.22,107.05 167.84,104.03 162.8,101.98C158.38,100.19 153.87,99.29 149.27,99.29L149.29,99.28ZM146.46,166.05C144.16,166.05 141.87,165.67 139.62,165.02C134.6,163.57 130.26,160.92 126.52,157.31C122.09,153.03 118.89,147.97 117.26,141.99C115.78,136.56 115.92,131.17 117.46,125.76C118.79,121.08 121.18,117.02 124.24,113.29C126.85,110.11 129.86,107.41 133.47,105.42C137.02,103.46 140.83,102.24 144.85,101.73C146.26,101.55 147.68,101.44 149.09,101.44C150.16,101.44 151.23,101.5 152.3,101.64C154.48,101.92 156.58,102.5 158.64,103.33C157.39,103.11 156.19,102.86 154.98,102.68C154.03,102.54 153.08,102.48 152.14,102.48C150.39,102.48 148.66,102.71 146.94,103.11C140.64,104.61 136.27,108.36 134.34,114.58C132.72,119.78 134.1,124.48 137.5,128.63C140.34,132.09 144.1,133.85 148.48,134.46C151.04,134.82 153.56,135.35 155.8,136.73C159.76,139.18 162.28,142.68 163.19,147.27C164.15,152.14 162.65,156.36 159.55,160.06C156.83,163.3 153.33,165.31 149.12,165.87C148.23,165.99 147.34,166.05 146.46,166.05ZM149.99,124.23L149.72,124.23C146.13,124.23 143.32,121.41 143.32,117.81C143.32,114.25 146.12,111.49 149.76,111.48L149.78,111.48C153.29,111.48 156.04,114.29 156.13,117.79C156.2,120.62 153.72,124.24 150,124.24L149.99,124.23Z" style="fill:rgb(173,126,7);fill-rule:nonzero;"/>
                </g>
                <g>
                    <path d="M148.27,156.76C145.12,156.76 142.43,154.05 142.4,150.85C142.37,147.57 145.01,144.97 148.41,144.93C151.77,144.93 154.38,147.5 154.42,150.79C154.44,152.38 153.82,153.87 152.68,154.99C151.54,156.12 149.99,156.75 148.33,156.76L148.27,156.76Z" style="fill:rgb(221,173,38);fill-rule:nonzero;"/>
                    <path d="M148.48,145.43C151.5,145.43 153.89,147.79 153.92,150.8C153.94,152.25 153.37,153.61 152.33,154.64C151.28,155.68 149.86,156.25 148.33,156.27L148.27,156.27C145.39,156.27 142.93,153.79 142.9,150.85C142.87,147.85 145.29,145.47 148.42,145.43L148.48,145.43M148.48,144.43L148.41,144.43C144.75,144.47 141.86,147.32 141.9,150.86C141.94,154.36 144.84,157.27 148.27,157.27L148.34,157.27C152.04,157.23 154.96,154.35 154.92,150.79C154.88,147.24 152.03,144.43 148.48,144.44L148.48,144.43Z" style="fill:rgb(173,126,7);fill-rule:nonzero;"/>
                </g>
            </g>
        </g>
    </g>
    <g id="Layer_8">
        <g>
            <path d="M337.82,21.76C328.22,22.81 325.07,24.31 324.62,31.21C324.47,36.01 324.17,42.31 324.17,56.26L324.17,116.41L318.47,116.41L254.27,37.96L254.27,75.46C254.27,88.96 254.72,95.71 255.02,100.06C255.32,107.71 259.07,109.96 269.87,110.86L269.87,115.06L233.42,115.06L233.42,110.86C242.72,110.11 246.32,107.86 246.92,100.51C247.37,95.71 247.67,88.96 247.67,75.31L247.67,37.06C247.67,32.86 247.37,30.46 244.67,27.16C241.82,23.41 238.67,22.51 231.32,21.76L231.32,17.56L253.82,17.56L317.42,93.01L317.42,56.26C317.42,42.31 317.12,35.86 316.67,31.36C316.22,24.61 312.77,22.51 300.77,21.76L300.77,17.56L337.82,17.56L337.82,21.76Z" style="fill:rgb(46,82,42);fill-rule:nonzero;stroke:rgb(28,53,25);stroke-width:2px;"/>
            <path d="M404.87,115.05L404.87,110.85C414.62,109.65 415.82,108.15 413.72,102.45C411.77,96.6 408.77,89.1 405.62,79.65L373.22,79.65C370.82,86.4 368.57,92.25 366.47,98.4C363.17,108.15 365.27,109.35 377.57,110.85L377.57,115.05L342.92,115.05L342.92,110.85C352.37,109.65 354.77,108.6 360.02,95.1L391.07,16.35L395.87,15.45C405.32,41.1 415.67,69.45 425.12,95.4C429.92,108.45 431.27,109.65 441.92,110.85L441.92,115.05L404.87,115.05ZM389.87,35.1C385.07,48 379.97,61.65 375.47,73.5L403.52,73.5L389.87,35.1Z" style="fill:rgb(46,82,42);fill-rule:nonzero;stroke:rgb(28,53,25);stroke-width:2px;"/>
            <path d="M493.37,17.56C514.52,17.56 527.87,21.76 537.17,30.61C544.52,37.81 549.92,48.31 549.92,62.71C549.92,80.26 542.72,94.51 531.17,103.21C519.77,111.76 505.22,115.06 486.77,115.06L451.67,115.06L451.67,110.86C464.57,109.66 465.17,108.61 465.17,96.31L465.17,36.46C465.17,23.56 463.37,22.96 451.67,21.76L451.67,17.56L493.37,17.56ZM478.22,95.11C478.22,106.36 483.02,109.51 494.27,109.51C521.27,109.51 535.07,91.06 535.07,64.81C535.07,48.46 529.52,36.01 517.67,28.81C510.77,24.46 502.07,22.81 492.02,22.81C485.27,22.81 481.67,23.71 480.17,24.91C478.82,25.81 478.22,27.46 478.22,33.31L478.22,95.11Z" style="fill:rgb(46,82,42);fill-rule:nonzero;stroke:rgb(28,53,25);stroke-width:2px;"/>
            <path d="M620.57,115.05L620.57,110.85C630.32,109.65 631.52,108.15 629.42,102.45C627.47,96.6 624.47,89.1 621.32,79.65L588.92,79.65C586.52,86.4 584.27,92.25 582.17,98.4C578.87,108.15 580.97,109.35 593.27,110.85L593.27,115.05L558.62,115.05L558.62,110.85C568.07,109.65 570.47,108.6 575.72,95.1L606.77,16.35L611.57,15.45C621.02,41.1 631.37,69.45 640.82,95.4C645.62,108.45 646.97,109.65 657.62,110.85L657.62,115.05L620.57,115.05ZM605.57,35.1C600.77,48 595.67,61.65 591.17,73.5L619.22,73.5L605.57,35.1Z" style="fill:rgb(46,82,42);fill-rule:nonzero;stroke:rgb(28,53,25);stroke-width:2px;"/>
        </g>
        <g>
            <path d="M227.64,130.4L232.13,130.4L242.08,143.77L242.08,139.71C242.08,137.1 241.88,135.03 241.48,133.5C241.08,131.97 240.45,131.15 239.58,131.06L239.58,130.4L245.55,130.4L245.55,131.06C243.88,131.21 243.05,133.95 243.05,139.28L243.05,148.52L242.42,148.52L230.61,132.58L230.61,137.67C230.61,140.89 230.81,143.26 231.2,144.79C231.6,146.32 232.24,147.14 233.13,147.25L233.13,147.91L227.18,147.91L227.18,147.25C228.85,146.99 229.68,143.85 229.68,137.83L229.68,133.11C229.68,132.3 229.52,131.76 229.21,131.5C228.9,131.23 228.37,131.09 227.63,131.08L227.63,130.42L227.64,130.4Z" style="fill:rgb(28,53,25);fill-rule:nonzero;"/>
            <path d="M254.54,129.67L255.35,129.67L260.18,143.65C260.54,144.69 260.93,145.54 261.35,146.2C261.77,146.86 262.29,147.2 262.9,147.23L262.9,147.89L257.98,147.89L257.98,147.23L258.31,147.23C258.47,147.23 258.55,147.08 258.55,146.78C258.55,146.69 258.53,146.59 258.5,146.48L256.87,141.72L250.87,141.72C250.25,143.49 249.94,144.8 249.94,145.67C249.94,146.13 250.09,146.5 250.38,146.79C250.68,147.08 251.07,147.23 251.55,147.23L252.27,147.23L252.27,147.89L246.15,147.89L246.15,147.23C247.17,147.18 248.1,146.09 248.94,143.96L254.54,129.67ZM254.07,133.59L251.21,140.87L256.57,140.87L254.07,133.59Z" style="fill:rgb(28,53,25);fill-rule:nonzero;"/>
            <path d="M262.86,129.78L263.48,129.78C263.6,130.19 263.78,130.4 264.01,130.4L275.96,130.4C276.27,130.4 276.42,130.19 276.42,129.78L277.08,129.78L277.08,134.98L276.11,134.98C276.08,132.36 274.7,131.06 271.95,131.06L271.21,131.06L271.21,145.07C271.21,146.47 271.9,147.19 273.29,147.23L273.29,147.89L266.6,147.89L266.6,147.23C267.42,147.23 267.97,147.06 268.25,146.76C268.53,146.46 268.67,145.89 268.67,145.07L268.67,131.06L267.73,131.06C265.21,131.06 263.9,132.37 263.82,134.98L262.86,134.98L262.86,129.78Z" style="fill:rgb(28,53,25);fill-rule:nonzero;"/>
            <path d="M285.55,131.05C284.73,131.07 284.18,131.23 283.9,131.52C283.62,131.82 283.48,132.38 283.48,133.21L283.48,145.06C283.48,146.46 284.17,147.18 285.56,147.22L285.56,147.88L278.87,147.88L278.87,147.22C279.69,147.22 280.24,147.05 280.52,146.75C280.8,146.45 280.94,145.88 280.94,145.06L280.94,133.21C280.94,132.33 280.78,131.75 280.48,131.48C280.17,131.21 279.63,131.07 278.87,131.05L278.87,130.39L285.56,130.39L285.56,131.05L285.55,131.05Z" style="fill:rgb(28,53,25);fill-rule:nonzero;"/>
            <path d="M297.94,130C299.47,130 300.82,130.3 302,130.9C303.18,131.5 304.21,132.44 305.09,133.72C305.97,135 306.42,136.53 306.42,138.31C306.42,140.25 305.87,142.03 304.77,143.63C303.67,145.24 302.39,146.42 300.93,147.16C299.47,147.9 297.93,148.28 296.33,148.28C294.03,148.28 292.08,147.49 290.48,145.91C288.88,144.33 288.07,142.37 288.07,140.03C288.07,137.32 289.07,134.98 291.08,132.99C293.08,131 295.37,130.01 297.94,130.01L297.94,130ZM296.23,131.27C294.54,131.27 293.15,131.86 292.04,133.04C290.93,134.22 290.38,135.78 290.38,137.72C290.38,140.57 291.21,142.84 292.88,144.53C294.54,146.22 296.36,147.06 298.34,147.06C299.92,147.06 301.27,146.47 302.41,145.28C303.54,144.09 304.11,142.57 304.11,140.71C304.11,138.97 303.73,137.33 302.98,135.81C302.22,134.28 301.19,133.14 299.89,132.39C298.59,131.64 297.37,131.26 296.24,131.26L296.23,131.27Z" style="fill:rgb(28,53,25);fill-rule:nonzero;"/>
            <path d="M309.39,130.4L313.88,130.4L323.83,143.77L323.83,139.71C323.83,137.1 323.63,135.03 323.23,133.5C322.83,131.97 322.2,131.15 321.33,131.06L321.33,130.4L327.3,130.4L327.3,131.06C325.63,131.21 324.8,133.95 324.8,139.28L324.8,148.52L324.17,148.52L312.36,132.58L312.36,137.67C312.36,140.89 312.56,143.26 312.95,144.79C313.35,146.32 313.99,147.14 314.88,147.25L314.88,147.91L308.93,147.91L308.93,147.25C310.6,146.99 311.43,143.85 311.43,137.83L311.43,133.11C311.43,132.3 311.27,131.76 310.96,131.5C310.65,131.23 310.12,131.09 309.38,131.08L309.38,130.42L309.39,130.4Z" style="fill:rgb(28,53,25);fill-rule:nonzero;"/>
            <path d="M336.29,129.67L337.1,129.67L341.93,143.65C342.29,144.69 342.68,145.54 343.1,146.2C343.52,146.86 344.04,147.2 344.65,147.23L344.65,147.89L339.73,147.89L339.73,147.23L340.06,147.23C340.22,147.23 340.3,147.08 340.3,146.78C340.3,146.69 340.28,146.59 340.25,146.48L338.62,141.72L332.62,141.72C332,143.49 331.69,144.8 331.69,145.67C331.69,146.13 331.84,146.5 332.13,146.79C332.43,147.08 332.82,147.23 333.3,147.23L334.02,147.23L334.02,147.89L327.9,147.89L327.9,147.23C328.92,147.18 329.85,146.09 330.69,143.96L336.29,129.67ZM335.82,133.59L332.96,140.87L338.32,140.87L335.82,133.59Z" style="fill:rgb(28,53,25);fill-rule:nonzero;"/>
            <path d="M346.28,130.4L352.97,130.4L352.97,131.06C352.15,131.08 351.59,131.23 351.31,131.52C351.03,131.81 350.89,132.38 350.89,133.22L350.89,147.23L352.67,147.23C355.44,147.23 357.08,145.78 357.6,142.88L358.58,142.88L357.4,148.53L356.77,148.53C356.77,148.1 356.56,147.89 356.18,147.89L346.27,147.89L346.27,147.23C347.08,147.23 347.63,147.06 347.92,146.76C348.21,146.46 348.35,145.89 348.35,145.07L348.35,133.22C348.35,132.34 348.19,131.76 347.89,131.49C347.59,131.22 347.04,131.07 346.28,131.06L346.28,130.4Z" style="fill:rgb(28,53,25);fill-rule:nonzero;"/>
            <path d="M375.42,129.67L376.23,129.67L381.06,143.65C381.42,144.69 381.81,145.54 382.23,146.2C382.65,146.86 383.17,147.2 383.78,147.23L383.78,147.89L378.86,147.89L378.86,147.23L379.19,147.23C379.35,147.23 379.43,147.08 379.43,146.78C379.43,146.69 379.41,146.59 379.38,146.48L377.75,141.72L371.75,141.72C371.13,143.49 370.82,144.8 370.82,145.67C370.82,146.13 370.97,146.5 371.26,146.79C371.56,147.08 371.95,147.23 372.43,147.23L373.15,147.23L373.15,147.89L367.03,147.89L367.03,147.23C368.05,147.18 368.98,146.09 369.82,143.96L375.42,129.67ZM374.95,133.59L372.09,140.87L377.45,140.87L374.95,133.59Z" style="fill:rgb(28,53,25);fill-rule:nonzero;"/>
            <path d="M400.63,144.55C397.74,147.04 395.11,148.28 392.73,148.28C390.79,148.28 389.05,147.54 387.51,146.06C385.97,144.58 385.19,142.54 385.19,139.94C385.19,138.13 385.59,136.5 386.39,135.07C387.19,133.64 388.33,132.44 389.8,131.46C391.27,130.48 393.04,130 395.11,130C396.91,130 398.62,130.28 400.22,130.85L400.22,134.98L399.25,134.98C399.13,133.69 398.56,132.68 397.54,131.95C396.52,131.22 395.3,130.86 393.89,130.86C391.91,130.86 390.36,131.58 389.23,133.03C388.1,134.48 387.54,136.26 387.54,138.36C387.54,140.64 388.18,142.53 389.47,144.03C390.75,145.53 392.4,146.29 394.41,146.29C396.42,146.29 398.49,145.43 400.62,143.71L400.62,144.54L400.63,144.55Z" style="fill:rgb(28,53,25);fill-rule:nonzero;"/>
            <path d="M414.73,130.4L420.75,130.4L420.75,131.06C419.05,131.31 418.19,134.16 418.19,139.6C418.19,141.49 418.15,142.83 418.07,143.64C417.99,144.45 417.72,145.2 417.24,145.91C416.77,146.62 416.04,147.19 415.07,147.63C414.1,148.07 412.92,148.29 411.56,148.29C410.2,148.29 408.91,148.08 407.9,147.66C406.89,147.24 406.12,146.63 405.59,145.85C405.06,145.07 404.79,144.09 404.79,142.94L404.79,133.23C404.79,132.34 404.63,131.77 404.32,131.5C404.01,131.23 403.47,131.09 402.71,131.07L402.71,130.41L409.4,130.41L409.4,131.07C408.59,131.09 408.04,131.24 407.75,131.54C407.46,131.83 407.32,132.4 407.32,133.23L407.32,142.84C407.32,143.75 407.46,144.51 407.74,145.11C408.02,145.71 408.54,146.25 409.31,146.73C410.08,147.21 411.02,147.45 412.15,147.45C413.28,147.45 414.23,147.24 415.01,146.83C415.79,146.42 416.35,145.81 416.71,144.99C417.06,144.18 417.24,142.95 417.24,141.31C417.24,137.71 417.05,135.12 416.68,133.56C416.3,131.99 415.66,131.17 414.74,131.09L414.74,130.43L414.73,130.4Z" style="fill:rgb(28,53,25);fill-rule:nonzero;"/>
            <path d="M422.53,130.4L431.19,130.4C432.69,130.4 433.8,130.69 434.5,131.27C435.2,131.85 435.55,132.6 435.55,133.53C435.55,135.01 434.86,136.42 433.48,137.75C432.1,139.08 430.68,139.74 429.22,139.74C428.9,139.74 428.57,139.7 428.22,139.61C427.87,139.52 427.51,139.4 427.14,139.23L427.14,145.07C427.14,146.47 427.83,147.19 429.22,147.23L429.22,147.89L422.53,147.89L422.53,147.23C423.35,147.23 423.9,147.07 424.18,146.77C424.46,146.47 424.6,145.9 424.6,145.07L424.6,133.22C424.6,132.34 424.44,131.76 424.14,131.49C423.83,131.22 423.29,131.08 422.53,131.06L422.53,130.4ZM427.15,131.93L427.15,137.39C427.73,137.83 428.29,138.16 428.81,138.38C429.33,138.6 429.82,138.71 430.28,138.71C431.14,138.71 431.78,138.42 432.21,137.85C432.64,137.28 432.85,136.41 432.85,135.26C432.85,134.11 432.57,133.07 432.02,132.27C431.47,131.46 430.67,131.06 429.62,131.06C428.77,131.06 427.95,131.35 427.15,131.94L427.15,131.93Z" style="fill:rgb(28,53,25);fill-rule:nonzero;"/>
            <path d="M448.5,130.4L454.52,130.4L454.52,131.06C452.82,131.31 451.96,134.16 451.96,139.6C451.96,141.49 451.92,142.83 451.84,143.64C451.76,144.45 451.49,145.2 451.01,145.91C450.54,146.62 449.81,147.19 448.84,147.63C447.87,148.07 446.69,148.29 445.33,148.29C443.97,148.29 442.68,148.08 441.67,147.66C440.66,147.24 439.89,146.63 439.36,145.85C438.83,145.07 438.56,144.09 438.56,142.94L438.56,133.23C438.56,132.34 438.4,131.77 438.09,131.5C437.78,131.23 437.24,131.09 436.48,131.07L436.48,130.41L443.17,130.41L443.17,131.07C442.36,131.09 441.81,131.24 441.52,131.54C441.23,131.83 441.09,132.4 441.09,133.23L441.09,142.84C441.09,143.75 441.23,144.51 441.51,145.11C441.79,145.71 442.31,146.25 443.08,146.73C443.85,147.21 444.79,147.45 445.92,147.45C447.05,147.45 448,147.24 448.78,146.83C449.56,146.42 450.12,145.81 450.48,144.99C450.83,144.18 451.01,142.95 451.01,141.31C451.01,137.71 450.82,135.12 450.45,133.56C450.07,131.99 449.43,131.17 448.51,131.09L448.51,130.43L448.5,130.4Z" style="fill:rgb(28,53,25);fill-rule:nonzero;"/>
            <path d="M456.41,130.4L460.9,130.4L470.85,143.77L470.85,139.71C470.85,137.1 470.65,135.03 470.25,133.5C469.85,131.97 469.22,131.15 468.35,131.06L468.35,130.4L474.32,130.4L474.32,131.06C472.65,131.21 471.82,133.95 471.82,139.28L471.82,148.52L471.19,148.52L459.38,132.58L459.38,137.67C459.38,140.89 459.58,143.26 459.97,144.79C460.37,146.32 461.01,147.14 461.9,147.25L461.9,147.91L455.95,147.91L455.95,147.25C457.62,146.99 458.45,143.85 458.45,137.83L458.45,133.11C458.45,132.3 458.29,131.76 457.98,131.5C457.67,131.23 457.14,131.09 456.4,131.08L456.4,130.42L456.41,130.4Z" style="fill:rgb(28,53,25);fill-rule:nonzero;"/>
            <path d="M491.64,144.55C488.75,147.04 486.12,148.28 483.74,148.28C481.8,148.28 480.06,147.54 478.52,146.06C476.98,144.58 476.2,142.54 476.2,139.94C476.2,138.13 476.6,136.5 477.4,135.07C478.2,133.64 479.34,132.44 480.81,131.46C482.28,130.48 484.05,130 486.12,130C487.92,130 489.63,130.28 491.23,130.85L491.23,134.98L490.26,134.98C490.14,133.69 489.57,132.68 488.55,131.95C487.53,131.22 486.31,130.86 484.9,130.86C482.92,130.86 481.37,131.58 480.24,133.03C479.11,134.48 478.55,136.26 478.55,138.36C478.55,140.64 479.19,142.53 480.48,144.03C481.76,145.53 483.41,146.29 485.42,146.29C487.43,146.29 489.5,145.43 491.63,143.71L491.63,144.54L491.64,144.55Z" style="fill:rgb(28,53,25);fill-rule:nonzero;"/>
            <path d="M493.36,129.78L493.98,129.78C494.1,130.19 494.28,130.4 494.51,130.4L506.46,130.4C506.77,130.4 506.92,130.19 506.92,129.78L507.58,129.78L507.58,134.98L506.61,134.98C506.58,132.36 505.2,131.06 502.45,131.06L501.71,131.06L501.71,145.07C501.71,146.47 502.4,147.19 503.79,147.23L503.79,147.89L497.1,147.89L497.1,147.23C497.92,147.23 498.47,147.06 498.75,146.76C499.03,146.46 499.17,145.89 499.17,145.07L499.17,131.06L498.23,131.06C495.71,131.06 494.4,132.37 494.32,134.98L493.36,134.98L493.36,129.78Z" style="fill:rgb(28,53,25);fill-rule:nonzero;"/>
            <path d="M521.03,130.4L527.05,130.4L527.05,131.06C525.35,131.31 524.49,134.16 524.49,139.6C524.49,141.49 524.45,142.83 524.37,143.64C524.29,144.45 524.02,145.2 523.54,145.91C523.07,146.62 522.34,147.19 521.37,147.63C520.4,148.07 519.22,148.29 517.86,148.29C516.5,148.29 515.21,148.08 514.2,147.66C513.19,147.24 512.42,146.63 511.89,145.85C511.36,145.07 511.09,144.09 511.09,142.94L511.09,133.23C511.09,132.34 510.93,131.77 510.62,131.5C510.31,131.23 509.77,131.09 509.01,131.07L509.01,130.41L515.7,130.41L515.7,131.07C514.89,131.09 514.34,131.24 514.05,131.54C513.76,131.83 513.62,132.4 513.62,133.23L513.62,142.84C513.62,143.75 513.76,144.51 514.04,145.11C514.32,145.71 514.84,146.25 515.61,146.73C516.38,147.21 517.32,147.45 518.45,147.45C519.58,147.45 520.53,147.24 521.31,146.83C522.09,146.42 522.65,145.81 523.01,144.99C523.36,144.18 523.54,142.95 523.54,141.31C523.54,137.71 523.35,135.12 522.98,133.56C522.6,131.99 521.96,131.17 521.04,131.09L521.04,130.43L521.03,130.4Z" style="fill:rgb(28,53,25);fill-rule:nonzero;"/>
            <path d="M528.8,130.4L537.5,130.4C538.79,130.4 539.76,130.65 540.41,131.15C541.05,131.65 541.37,132.4 541.37,133.41C541.37,134.53 541.01,135.58 540.28,136.55C539.55,137.52 538.47,138.42 537.02,139.25L540.07,143.97C541.44,146.08 542.7,147.17 543.86,147.24L543.86,147.9L540.58,147.9C539.92,147.9 539.34,147.51 538.83,146.72L533.42,138.3L533.42,145.08C533.42,146.48 534.12,147.2 535.53,147.24L535.53,147.9L528.82,147.9L528.82,147.24C529.64,147.24 530.19,147.07 530.47,146.77C530.75,146.47 530.89,145.9 530.89,145.08L530.89,133.23C530.89,132.35 530.73,131.77 530.43,131.5C530.12,131.23 529.58,131.09 528.82,131.07L528.82,130.41L528.8,130.4ZM533.41,131.74L533.41,137.43C534.48,138.2 535.39,138.59 536.16,138.59C536.93,138.59 537.56,138.32 537.96,137.78C538.36,137.24 538.56,136.43 538.56,135.36C538.56,134.05 538.26,133.01 537.67,132.23C537.08,131.45 536.36,131.06 535.51,131.06C534.76,131.06 534.06,131.29 533.4,131.74L533.41,131.74Z" style="fill:rgb(28,53,25);fill-rule:nonzero;"/>
            <path d="M555.45,129.71L556.09,129.71L556.09,134.93L555.09,134.93C555.07,133.56 554.68,132.57 553.91,131.96C553.14,131.35 551.98,131.04 550.41,131.04L549.37,131.04C549.27,132.03 549.22,132.92 549.22,133.71C549.22,135.27 549.52,136.42 550.13,137.16C550.74,137.9 551.71,138.27 553.06,138.27L554.4,138.27L554.4,139.23L549.37,139.37L549.37,147.23L550.82,147.23C553.88,147.23 555.64,145.77 556.08,142.85L557.05,142.85L555.93,148.48L555.25,148.48C555.25,148.08 555.07,147.88 554.73,147.88L544.76,147.88L544.76,147.22C545.58,147.22 546.13,147.06 546.41,146.76C546.69,146.46 546.83,145.89 546.83,145.06L546.83,133.22C546.83,132.33 546.67,131.74 546.36,131.47C546.05,131.2 545.51,131.06 544.75,131.04L544.75,130.38L554.51,130.38C555.1,130.38 555.41,130.15 555.43,129.7L555.45,129.71Z" style="fill:rgb(28,53,25);fill-rule:nonzero;"/>
            <path d="M227.61,162.4L238.36,162.4C240.77,162.4 242.57,162.97 243.77,164.12C244.97,165.27 245.57,167 245.57,169.3C245.57,172.23 244.6,174.73 242.65,176.79C240.7,178.85 238.08,179.88 234.78,179.88L227.62,179.88L227.62,179.22C228.44,179.22 228.99,179.05 229.27,178.75C229.55,178.45 229.69,177.88 229.69,177.06L229.69,165.21C229.69,164.33 229.53,163.75 229.23,163.48C228.92,163.21 228.38,163.07 227.62,163.05L227.62,162.39L227.61,162.4ZM232.22,164.07L232.22,177.72C233.68,178.57 235.1,178.99 236.49,178.99C238.44,178.99 240.01,178.26 241.21,176.79C242.4,175.32 243,173.42 243,171.08C243,168.74 242.48,166.8 241.43,165.29C240.39,163.78 238.64,163.02 236.19,163.02C234.59,163.02 233.27,163.37 232.23,164.07L232.22,164.07Z" style="fill:rgb(28,53,25);fill-rule:nonzero;"/>
            <path d="M258.83,161.71L259.47,161.71L259.47,166.93L258.47,166.93C258.45,165.56 258.06,164.57 257.29,163.96C256.52,163.35 255.36,163.04 253.79,163.04L252.75,163.04C252.65,164.03 252.6,164.92 252.6,165.71C252.6,167.27 252.9,168.42 253.51,169.16C254.12,169.9 255.09,170.27 256.44,170.27L257.78,170.27L257.78,171.23L252.75,171.37L252.75,179.23L254.2,179.23C257.26,179.23 259.02,177.77 259.46,174.85L260.43,174.85L259.31,180.48L258.63,180.48C258.63,180.08 258.45,179.88 258.11,179.88L248.14,179.88L248.14,179.22C248.96,179.22 249.51,179.06 249.79,178.76C250.07,178.46 250.21,177.89 250.21,177.06L250.21,165.22C250.21,164.33 250.05,163.74 249.74,163.47C249.43,163.2 248.89,163.06 248.13,163.04L248.13,162.38L257.89,162.38C258.48,162.38 258.79,162.15 258.81,161.7L258.83,161.71Z" style="fill:rgb(28,53,25);fill-rule:nonzero;"/>
            <path d="M261.67,161.78L262.29,161.78C262.41,162.19 262.59,162.4 262.82,162.4L274.77,162.4C275.08,162.4 275.23,162.19 275.23,161.78L275.89,161.78L275.89,166.98L274.92,166.98C274.89,164.36 273.51,163.06 270.76,163.06L270.02,163.06L270.02,177.07C270.02,178.47 270.71,179.19 272.1,179.23L272.1,179.89L265.41,179.89L265.41,179.23C266.23,179.23 266.78,179.06 267.06,178.76C267.34,178.46 267.48,177.89 267.48,177.07L267.48,163.06L266.54,163.06C264.02,163.06 262.71,164.37 262.63,166.98L261.67,166.98L261.67,161.78Z" style="fill:rgb(28,53,25);fill-rule:nonzero;"/>
            <path d="M287.59,162C289.12,162 290.47,162.3 291.65,162.9C292.83,163.5 293.86,164.44 294.74,165.72C295.62,167 296.07,168.53 296.07,170.31C296.07,172.25 295.52,174.03 294.42,175.63C293.32,177.24 292.04,178.42 290.58,179.16C289.12,179.9 287.58,180.28 285.98,180.28C283.68,180.28 281.73,179.49 280.13,177.91C278.53,176.33 277.72,174.37 277.72,172.03C277.72,169.32 278.72,166.98 280.73,164.99C282.73,163 285.02,162.01 287.59,162.01L287.59,162ZM285.88,163.27C284.19,163.27 282.8,163.86 281.69,165.04C280.58,166.22 280.03,167.78 280.03,169.72C280.03,172.57 280.86,174.84 282.53,176.53C284.19,178.22 286.01,179.06 287.99,179.06C289.57,179.06 290.92,178.47 292.06,177.28C293.19,176.09 293.76,174.57 293.76,172.71C293.76,170.97 293.38,169.33 292.63,167.81C291.87,166.28 290.84,165.14 289.54,164.39C288.24,163.64 287.02,163.26 285.89,163.26L285.88,163.27Z" style="fill:rgb(28,53,25);fill-rule:nonzero;"/>
            <path d="M297.3,162.4L302.63,162.4L302.63,163.06C302.26,163.08 302.08,163.19 302.08,163.4C302.08,163.47 302.1,163.54 302.13,163.61L305.41,169.06C307.02,166.82 307.82,165.27 307.82,164.4C307.82,163.99 307.69,163.67 307.42,163.43C307.15,163.19 306.59,163.07 305.75,163.06L305.75,162.4L312.3,162.4L312.3,163.06C311.06,163.24 309.73,164.29 308.31,166.2L305.78,169.64L309.29,175.47L310.12,176.85C310.39,177.3 310.72,177.71 311.1,178.09C311.48,178.47 311.81,178.74 312.08,178.89C312.35,179.04 312.71,179.15 313.14,179.23L313.14,179.89L307.7,179.89L307.7,179.23C308.06,179.21 308.25,179.07 308.25,178.81C308.25,178.72 308.22,178.62 308.15,178.52L304.16,171.85C302.12,174.63 301.1,176.63 301.1,177.85C301.1,178.75 301.72,179.21 302.95,179.23L302.95,179.89L296.46,179.89L296.46,179.23C297.66,179.13 299,178.04 300.48,175.96L303.84,171.28L300.8,166.2C299.6,164.19 298.44,163.15 297.33,163.06L297.33,162.4L297.3,162.4Z" style="fill:rgb(28,53,25);fill-rule:nonzero;"/>
            <path d="M321.69,163.05C320.87,163.07 320.32,163.23 320.04,163.52C319.76,163.82 319.62,164.38 319.62,165.21L319.62,177.06C319.62,178.46 320.31,179.18 321.7,179.22L321.7,179.88L315.01,179.88L315.01,179.22C315.83,179.22 316.38,179.05 316.66,178.75C316.94,178.45 317.08,177.88 317.08,177.06L317.08,165.21C317.08,164.33 316.92,163.75 316.62,163.48C316.31,163.21 315.77,163.07 315.01,163.05L315.01,162.39L321.7,162.39L321.7,163.05L321.69,163.05Z" style="fill:rgb(28,53,25);fill-rule:nonzero;"/>
            <path d="M334.74,161.79L335.34,161.79L335.34,166.99L334.36,166.99C334.36,165.57 333.97,164.56 333.18,163.95C332.39,163.35 331.22,163.05 329.67,163.05L328.62,163.05C328.52,164.04 328.47,164.94 328.47,165.73C328.47,167.47 328.77,168.72 329.37,169.48C329.97,170.24 331.02,170.61 332.51,170.61L333.64,170.61L333.64,171.55L328.61,171.66L328.61,177.06C328.61,178.46 329.3,179.18 330.69,179.22L330.69,179.88L324,179.88L324,179.22C324.81,179.22 325.36,179.05 325.65,178.75C325.94,178.45 326.08,177.88 326.08,177.06L326.08,165.21C326.08,164.33 325.92,163.75 325.62,163.48C325.31,163.21 324.77,163.07 324.01,163.05L324.01,162.39L334.36,162.39C334.42,162.39 334.5,162.33 334.59,162.2C334.68,162.07 334.73,161.94 334.75,161.78L334.74,161.79Z" style="fill:rgb(28,53,25);fill-rule:nonzero;"/>
            <path d="M343.52,163.05C342.7,163.07 342.15,163.23 341.87,163.52C341.59,163.82 341.45,164.38 341.45,165.21L341.45,177.06C341.45,178.46 342.14,179.18 343.53,179.22L343.53,179.88L336.84,179.88L336.84,179.22C337.66,179.22 338.21,179.05 338.49,178.75C338.77,178.45 338.91,177.88 338.91,177.06L338.91,165.21C338.91,164.33 338.75,163.75 338.45,163.48C338.14,163.21 337.6,163.07 336.84,163.05L336.84,162.39L343.53,162.39L343.53,163.05L343.52,163.05Z" style="fill:rgb(28,53,25);fill-rule:nonzero;"/>
            <path d="M361.47,176.55C358.58,179.04 355.95,180.28 353.57,180.28C351.63,180.28 349.89,179.54 348.35,178.06C346.81,176.58 346.03,174.54 346.03,171.94C346.03,170.13 346.43,168.5 347.23,167.07C348.03,165.64 349.17,164.44 350.64,163.46C352.11,162.48 353.88,162 355.95,162C357.75,162 359.46,162.28 361.06,162.85L361.06,166.98L360.09,166.98C359.97,165.69 359.4,164.68 358.38,163.95C357.36,163.22 356.14,162.86 354.73,162.86C352.75,162.86 351.2,163.58 350.07,165.03C348.94,166.48 348.38,168.26 348.38,170.36C348.38,172.64 349.02,174.53 350.31,176.03C351.59,177.53 353.24,178.29 355.25,178.29C357.26,178.29 359.33,177.43 361.46,175.71L361.46,176.54L361.47,176.55Z" style="fill:rgb(28,53,25);fill-rule:nonzero;"/>
            <path d="M371.42,161.67L372.23,161.67L377.06,175.65C377.42,176.69 377.81,177.54 378.23,178.2C378.65,178.86 379.17,179.2 379.78,179.23L379.78,179.89L374.86,179.89L374.86,179.23L375.19,179.23C375.35,179.23 375.43,179.08 375.43,178.78C375.43,178.69 375.41,178.59 375.38,178.48L373.75,173.72L367.75,173.72C367.13,175.49 366.82,176.8 366.82,177.67C366.82,178.13 366.97,178.5 367.26,178.79C367.56,179.08 367.95,179.23 368.43,179.23L369.15,179.23L369.15,179.89L363.03,179.89L363.03,179.23C364.05,179.18 364.98,178.09 365.82,175.96L371.42,161.67ZM370.95,165.59L368.09,172.87L373.45,172.87L370.95,165.59Z" style="fill:rgb(28,53,25);fill-rule:nonzero;"/>
            <path d="M379.73,161.78L380.35,161.78C380.47,162.19 380.65,162.4 380.88,162.4L392.83,162.4C393.14,162.4 393.29,162.19 393.29,161.78L393.95,161.78L393.95,166.98L392.98,166.98C392.95,164.36 391.57,163.06 388.82,163.06L388.08,163.06L388.08,177.07C388.08,178.47 388.77,179.19 390.16,179.23L390.16,179.89L383.47,179.89L383.47,179.23C384.29,179.23 384.84,179.06 385.12,178.76C385.4,178.46 385.54,177.89 385.54,177.07L385.54,163.06L384.6,163.06C382.08,163.06 380.77,164.37 380.69,166.98L379.73,166.98L379.73,161.78Z" style="fill:rgb(28,53,25);fill-rule:nonzero;"/>
            <path d="M402.43,163.05C401.61,163.07 401.06,163.23 400.78,163.52C400.5,163.82 400.36,164.38 400.36,165.21L400.36,177.06C400.36,178.46 401.05,179.18 402.44,179.22L402.44,179.88L395.75,179.88L395.75,179.22C396.57,179.22 397.12,179.05 397.4,178.75C397.68,178.45 397.82,177.88 397.82,177.06L397.82,165.21C397.82,164.33 397.66,163.75 397.36,163.48C397.05,163.21 396.51,163.07 395.75,163.05L395.75,162.39L402.44,162.39L402.44,163.05L402.43,163.05Z" style="fill:rgb(28,53,25);fill-rule:nonzero;"/>
            <path d="M414.81,162C416.34,162 417.69,162.3 418.87,162.9C420.05,163.5 421.08,164.44 421.96,165.72C422.84,167 423.29,168.53 423.29,170.31C423.29,172.25 422.74,174.03 421.64,175.63C420.54,177.24 419.26,178.42 417.8,179.16C416.34,179.9 414.8,180.28 413.2,180.28C410.9,180.28 408.95,179.49 407.35,177.91C405.75,176.33 404.94,174.37 404.94,172.03C404.94,169.32 405.94,166.98 407.95,164.99C409.95,163 412.24,162.01 414.81,162.01L414.81,162ZM413.1,163.27C411.41,163.27 410.02,163.86 408.91,165.04C407.8,166.22 407.25,167.78 407.25,169.72C407.25,172.57 408.08,174.84 409.75,176.53C411.41,178.22 413.23,179.06 415.21,179.06C416.79,179.06 418.14,178.47 419.28,177.28C420.41,176.09 420.98,174.57 420.98,172.71C420.98,170.97 420.6,169.33 419.85,167.81C419.09,166.28 418.06,165.14 416.76,164.39C415.46,163.64 414.24,163.26 413.11,163.26L413.1,163.27Z" style="fill:rgb(28,53,25);fill-rule:nonzero;"/>
            <path d="M426.26,162.4L430.75,162.4L440.7,175.77L440.7,171.71C440.7,169.1 440.5,167.03 440.1,165.5C439.7,163.97 439.07,163.15 438.2,163.06L438.2,162.4L444.17,162.4L444.17,163.06C442.5,163.21 441.67,165.95 441.67,171.28L441.67,180.52L441.04,180.52L429.23,164.58L429.23,169.67C429.23,172.89 429.43,175.26 429.82,176.79C430.22,178.32 430.86,179.14 431.75,179.25L431.75,179.91L425.8,179.91L425.8,179.25C427.47,178.99 428.3,175.85 428.3,169.83L428.3,165.11C428.3,164.3 428.14,163.76 427.83,163.5C427.52,163.23 426.99,163.09 426.25,163.08L426.25,162.42L426.26,162.4Z" style="fill:rgb(28,53,25);fill-rule:nonzero;"/>
            <path d="M461.23,161.67L462.04,161.67L466.87,175.65C467.23,176.69 467.62,177.54 468.04,178.2C468.46,178.86 468.98,179.2 469.59,179.23L469.59,179.89L464.67,179.89L464.67,179.23L465,179.23C465.16,179.23 465.24,179.08 465.24,178.78C465.24,178.69 465.22,178.59 465.19,178.48L463.56,173.72L457.56,173.72C456.94,175.49 456.63,176.8 456.63,177.67C456.63,178.13 456.78,178.5 457.07,178.79C457.37,179.08 457.76,179.23 458.24,179.23L458.96,179.23L458.96,179.89L452.84,179.89L452.84,179.23C453.86,179.18 454.79,178.09 455.63,175.96L461.23,161.67ZM460.76,165.59L457.9,172.87L463.26,172.87L460.76,165.59Z" style="fill:rgb(28,53,25);fill-rule:nonzero;"/>
            <path d="M473.33,169.64C472.91,169.24 472.59,168.81 472.38,168.35C472.17,167.89 472.06,167.41 472.06,166.91C472.06,165.6 472.66,164.45 473.87,163.46C475.08,162.48 476.49,161.98 478.11,161.98C478.92,161.98 480.01,162.21 481.36,162.68L481.36,166.96L480.36,166.96C480.29,165.77 479.92,164.8 479.26,164.04C478.6,163.28 477.8,162.91 476.84,162.91C476.06,162.91 475.42,163.15 474.91,163.62C474.4,164.09 474.15,164.7 474.15,165.43C474.15,166.16 474.4,166.78 474.91,167.39C475.41,168 476.6,168.94 478.49,170.21C479.92,171.17 480.89,171.95 481.39,172.54C481.88,173.14 482.13,173.88 482.13,174.76C482.13,176.19 481.47,177.47 480.15,178.59C478.83,179.71 477.34,180.27 475.67,180.27C474.47,180.27 473.13,179.99 471.65,179.42L471.65,174.48L472.62,174.48C472.62,175.86 473.02,177.02 473.83,177.95C474.64,178.88 475.59,179.34 476.69,179.34C477.7,179.34 478.5,179.04 479.09,178.45C479.68,177.86 479.97,177.1 479.97,176.19C479.97,175.4 479.73,174.7 479.24,174.1C478.76,173.51 477.65,172.64 475.93,171.5C474.99,170.88 474.12,170.25 473.32,169.61L473.33,169.64Z" style="fill:rgb(28,53,25);fill-rule:nonzero;"/>
            <path d="M486.57,169.64C486.15,169.24 485.83,168.81 485.62,168.35C485.41,167.89 485.3,167.41 485.3,166.91C485.3,165.6 485.9,164.45 487.11,163.46C488.32,162.48 489.73,161.98 491.35,161.98C492.16,161.98 493.25,162.21 494.6,162.68L494.6,166.96L493.6,166.96C493.53,165.77 493.16,164.8 492.5,164.04C491.84,163.28 491.04,162.91 490.08,162.91C489.3,162.91 488.66,163.15 488.15,163.62C487.64,164.09 487.39,164.7 487.39,165.43C487.39,166.16 487.64,166.78 488.15,167.39C488.65,168 489.84,168.94 491.73,170.21C493.16,171.17 494.13,171.95 494.63,172.54C495.12,173.14 495.37,173.88 495.37,174.76C495.37,176.19 494.71,177.47 493.39,178.59C492.07,179.71 490.58,180.27 488.91,180.27C487.71,180.27 486.37,179.99 484.89,179.42L484.89,174.48L485.86,174.48C485.86,175.86 486.26,177.02 487.07,177.95C487.88,178.88 488.83,179.34 489.93,179.34C490.94,179.34 491.74,179.04 492.33,178.45C492.92,177.86 493.21,177.1 493.21,176.19C493.21,175.4 492.97,174.7 492.48,174.1C492,173.51 490.89,172.64 489.17,171.5C488.23,170.88 487.36,170.25 486.56,169.61L486.57,169.64Z" style="fill:rgb(28,53,25);fill-rule:nonzero;"/>
            <path d="M507.72,162C509.25,162 510.6,162.3 511.78,162.9C512.96,163.5 513.99,164.44 514.87,165.72C515.75,167 516.2,168.53 516.2,170.31C516.2,172.25 515.65,174.03 514.55,175.63C513.45,177.24 512.17,178.42 510.71,179.16C509.25,179.9 507.71,180.28 506.11,180.28C503.81,180.28 501.86,179.49 500.26,177.91C498.66,176.33 497.85,174.37 497.85,172.03C497.85,169.32 498.85,166.98 500.86,164.99C502.86,163 505.15,162.01 507.72,162.01L507.72,162ZM506.01,163.27C504.32,163.27 502.93,163.86 501.82,165.04C500.71,166.22 500.16,167.78 500.16,169.72C500.16,172.57 500.99,174.84 502.66,176.53C504.32,178.22 506.14,179.06 508.12,179.06C509.7,179.06 511.05,178.47 512.19,177.28C513.32,176.09 513.89,174.57 513.89,172.71C513.89,170.97 513.51,169.33 512.76,167.81C512,166.28 510.97,165.14 509.67,164.39C508.37,163.64 507.15,163.26 506.02,163.26L506.01,163.27Z" style="fill:rgb(28,53,25);fill-rule:nonzero;"/>
            <path d="M534.39,176.55C531.5,179.04 528.87,180.28 526.49,180.28C524.55,180.28 522.81,179.54 521.27,178.06C519.73,176.58 518.95,174.54 518.95,171.94C518.95,170.13 519.35,168.5 520.15,167.07C520.95,165.64 522.09,164.44 523.56,163.46C525.03,162.48 526.8,162 528.87,162C530.67,162 532.38,162.28 533.98,162.85L533.98,166.98L533.01,166.98C532.89,165.69 532.32,164.68 531.3,163.95C530.28,163.22 529.06,162.86 527.65,162.86C525.67,162.86 524.12,163.58 522.99,165.03C521.86,166.48 521.3,168.26 521.3,170.36C521.3,172.64 521.94,174.53 523.23,176.03C524.51,177.53 526.16,178.29 528.17,178.29C530.18,178.29 532.25,177.43 534.38,175.71L534.38,176.54L534.39,176.55Z" style="fill:rgb(28,53,25);fill-rule:nonzero;"/>
            <path d="M543.52,163.05C542.7,163.07 542.15,163.23 541.87,163.52C541.59,163.82 541.45,164.38 541.45,165.21L541.45,177.06C541.45,178.46 542.14,179.18 543.53,179.22L543.53,179.88L536.84,179.88L536.84,179.22C537.66,179.22 538.21,179.05 538.49,178.75C538.77,178.45 538.91,177.88 538.91,177.06L538.91,165.21C538.91,164.33 538.75,163.75 538.45,163.48C538.14,163.21 537.6,163.07 536.84,163.05L536.84,162.39L543.53,162.39L543.53,163.05L543.52,163.05Z" style="fill:rgb(28,53,25);fill-rule:nonzero;"/>
            <path d="M553.51,161.67L554.32,161.67L559.15,175.65C559.51,176.69 559.9,177.54 560.32,178.2C560.74,178.86 561.26,179.2 561.87,179.23L561.87,179.89L556.95,179.89L556.95,179.23L557.28,179.23C557.44,179.23 557.52,179.08 557.52,178.78C557.52,178.69 557.5,178.59 557.47,178.48L555.84,173.72L549.84,173.72C549.22,175.49 548.91,176.8 548.91,177.67C548.91,178.13 549.06,178.5 549.35,178.79C549.65,179.08 550.04,179.23 550.52,179.23L551.24,179.23L551.24,179.89L545.12,179.89L545.12,179.23C546.14,179.18 547.07,178.09 547.91,175.96L553.51,161.67ZM553.04,165.59L550.18,172.87L555.54,172.87L553.04,165.59Z" style="fill:rgb(28,53,25);fill-rule:nonzero;"/>
            <path d="M561.82,161.78L562.44,161.78C562.56,162.19 562.74,162.4 562.97,162.4L574.92,162.4C575.23,162.4 575.38,162.19 575.38,161.78L576.04,161.78L576.04,166.98L575.07,166.98C575.04,164.36 573.66,163.06 570.91,163.06L570.17,163.06L570.17,177.07C570.17,178.47 570.86,179.19 572.25,179.23L572.25,179.89L565.56,179.89L565.56,179.23C566.38,179.23 566.93,179.06 567.21,178.76C567.49,178.46 567.63,177.89 567.63,177.07L567.63,163.06L566.69,163.06C564.17,163.06 562.86,164.37 562.78,166.98L561.82,166.98L561.82,161.78Z" style="fill:rgb(28,53,25);fill-rule:nonzero;"/>
            <path d="M584.51,163.05C583.69,163.07 583.14,163.23 582.86,163.52C582.58,163.82 582.44,164.38 582.44,165.21L582.44,177.06C582.44,178.46 583.13,179.18 584.52,179.22L584.52,179.88L577.83,179.88L577.83,179.22C578.65,179.22 579.2,179.05 579.48,178.75C579.76,178.45 579.9,177.88 579.9,177.06L579.9,165.21C579.9,164.33 579.74,163.75 579.44,163.48C579.13,163.21 578.59,163.07 577.83,163.05L577.83,162.39L584.52,162.39L584.52,163.05L584.51,163.05Z" style="fill:rgb(28,53,25);fill-rule:nonzero;"/>
            <path d="M596.9,162C598.43,162 599.78,162.3 600.96,162.9C602.14,163.5 603.17,164.44 604.05,165.72C604.93,167 605.38,168.53 605.38,170.31C605.38,172.25 604.83,174.03 603.73,175.63C602.63,177.24 601.35,178.42 599.89,179.16C598.43,179.9 596.89,180.28 595.29,180.28C592.99,180.28 591.04,179.49 589.44,177.91C587.84,176.33 587.03,174.37 587.03,172.03C587.03,169.32 588.03,166.98 590.04,164.99C592.04,163 594.33,162.01 596.9,162.01L596.9,162ZM595.19,163.27C593.5,163.27 592.11,163.86 591,165.04C589.89,166.22 589.34,167.78 589.34,169.72C589.34,172.57 590.17,174.84 591.84,176.53C593.5,178.22 595.32,179.06 597.3,179.06C598.88,179.06 600.23,178.47 601.37,177.28C602.5,176.09 603.07,174.57 603.07,172.71C603.07,170.97 602.69,169.33 601.94,167.81C601.18,166.28 600.15,165.14 598.85,164.39C597.55,163.64 596.33,163.26 595.2,163.26L595.19,163.27Z" style="fill:rgb(28,53,25);fill-rule:nonzero;"/>
            <path d="M608.35,162.4L612.84,162.4L622.79,175.77L622.79,171.71C622.79,169.1 622.59,167.03 622.19,165.5C621.79,163.97 621.16,163.15 620.29,163.06L620.29,162.4L626.26,162.4L626.26,163.06C624.59,163.21 623.76,165.95 623.76,171.28L623.76,180.52L623.13,180.52L611.32,164.58L611.32,169.67C611.32,172.89 611.52,175.26 611.91,176.79C612.31,178.32 612.95,179.14 613.84,179.25L613.84,179.91L607.89,179.91L607.89,179.25C609.56,178.99 610.39,175.85 610.39,169.83L610.39,165.11C610.39,164.3 610.23,163.76 609.92,163.5C609.61,163.23 609.08,163.09 608.34,163.08L608.34,162.42L608.35,162.4Z" style="fill:rgb(28,53,25);fill-rule:nonzero;"/>
        </g>
    </g>
</svg>
